<svg width="258" height="85" viewBox="0 0 258 85" fill="none" xmlns="http://www.w3.org/2000/svg">
<path d="M29.6406 18.1484H18.8984V5.94141H5.03125V18.1484H0.148438V28.8906H5.03125V51.3516C5.03125 58.5781 7.73307 63.0703 13.1367 64.8281C15.4805 65.6094 18.3125 66 21.6328 66H29.6406V54.2812H20.2656C19.4193 54.151 18.9635 53.6953 18.8984 52.9141V28.8906H29.6406V18.1484Z" fill="#F5501C"/>
<path d="M56.4961 55.7461H48C47.1536 55.6159 46.6979 55.1602 46.6328 54.3789V48.0312C46.763 47.1849 47.2188 46.7292 48 46.6641H56.4961V55.7461ZM47.1211 66.9766C52.7852 66.8464 56.0078 63.9818 56.7891 58.3828L57.7656 66H70.4609V32.1133C70.4609 25.2773 68.1823 20.9479 63.625 19.125C61.4766 18.3438 58.7096 17.9531 55.3242 17.9531L36.4766 18.0508V29.7695L55.1289 29.6719C55.9753 29.8021 56.431 30.2578 56.4961 31.0391V36.8984H47.6094C40.8385 36.8984 36.5091 38.5586 34.6211 41.8789C33.5143 43.832 32.9609 46.5664 32.9609 50.082V54.7695C32.9609 61.0195 35.207 64.8281 39.6992 66.1953C41.3919 66.7161 43.3776 66.9766 45.6562 66.9766H47.1211Z" fill="#F5501C"/>
<path d="M100.832 46.7617C101.548 46.8919 102.036 47.3477 102.297 48.1289L107.375 66H121.633L116.945 50.1797C115.513 45.4922 113.918 42.5299 112.16 41.293C111.574 40.9023 110.956 40.5768 110.305 40.3164C111.867 39.0143 113.234 36.1172 114.406 31.625L118.02 18.1484H104.152L100.246 33.6758C99.9206 34.5221 99.4323 34.9779 98.7812 35.043H92.9219V0.0820312H79.25V66H92.9219V46.7617H100.832Z" fill="#F5501C"/>
<path d="M161.672 66.5859V54.8672H140.969C140.122 54.737 139.667 54.2812 139.602 53.5V48.2266H163.137V30.8438C163.137 24.6589 161.411 20.6549 157.961 18.832C155.747 17.7253 152.59 17.1719 148.488 17.1719H140.383C133.742 17.1719 129.445 18.7995 127.492 22.0547C126.32 24.138 125.734 27.0677 125.734 30.8438V51.9375C125.734 59.1641 128.436 63.6562 133.84 65.4141C136.184 66.1953 139.016 66.5859 142.336 66.5859H161.672ZM139.602 29.7695C139.732 28.9232 140.188 28.4674 140.969 28.4023H148.098C148.944 28.5326 149.4 28.9883 149.465 29.7695V38.4609H139.602V29.7695Z" fill="#F5501C"/>
<path d="M185.695 66.9766C191.424 66.8464 194.68 63.9818 195.461 58.3828L196.438 66H209.035L208.84 18.1484H194.973L195.168 55.7461H185.695C184.849 55.6159 184.393 55.1602 184.328 54.3789V18.1484H170.461V54.7695C170.461 61.0195 172.707 64.8281 177.199 66.1953C178.892 66.7161 180.878 66.9766 183.156 66.9766H185.695Z" fill="#F5501C"/>
<path d="M232.766 84.5547V66.1953H242.727C249.497 66.1953 253.827 64.5352 255.715 61.2148C256.822 59.2617 257.375 56.5273 257.375 53.0117V29.3789C257.375 23.1289 255.129 19.3203 250.637 17.9531C248.944 17.4323 246.958 17.1719 244.68 17.1719H242.238C236.574 17.1719 233.352 20.0365 232.57 25.7656C232.505 25.9609 232.473 26.1237 232.473 26.2539L231.398 18.1484H218.801V84.5547H232.766ZM232.766 29.7695C232.896 28.9232 233.352 28.4674 234.133 28.4023H242.336C243.182 28.5326 243.638 28.9883 243.703 29.7695V53.4023C243.573 54.2487 243.117 54.7044 242.336 54.7695H232.766V29.7695Z" fill="#F5501C"/>
</svg>
