<svg width="100" height="100" viewBox="0 0 100 100" fill="none" xmlns="http://www.w3.org/2000/svg">
<circle cx="50" cy="50" r="50" fill="#F44913"/>
<path d="M44.1742 37.0648H37.4219V29.3918H28.7054V37.0648H25.6362V43.817H28.7054V57.9353C28.7054 62.4777 30.4037 65.3014 33.8003 66.4063C35.2735 66.8974 37.0536 67.1429 39.1407 67.1429H44.1742V59.7768H38.2813C37.7493 59.695 37.4629 59.4085 37.4219 58.9175V43.817H44.1742V37.0648Z" fill="white"/>
<path d="M60.6251 67.2043C64.6764 67.2043 67.1727 65.8743 68.1139 63.2143C68.4413 62.1913 68.605 60.9636 68.605 59.5313V56.769C68.605 53.0041 67.4796 50.5692 65.2289 49.4643C63.8784 48.8096 61.9346 48.4822 59.3974 48.4822H56.2054C55.6734 48.4003 55.387 48.1139 55.3461 47.6228V44.6764C55.4279 44.1444 55.7144 43.8579 56.2054 43.817L66.7635 43.8784V36.5123L56.0827 36.4509C51.4993 36.41 48.6143 37.74 47.4275 40.4409C46.8546 41.7504 46.5682 43.3873 46.5682 45.3516V47.009C46.5682 50.8148 47.714 53.2701 50.0057 54.375C51.397 55.0298 53.3204 55.3572 55.7757 55.3572H59.1519C59.6839 55.439 59.9703 55.7255 60.0112 56.2166V59.2858C59.9294 59.8178 59.6429 60.1042 59.1519 60.1451H47.182L47.2434 67.2043H60.6251Z" fill="white"/>
<path d="M79.0403 67.1429V58.8561H71.6742V67.1429H79.0403Z" fill="white"/>
</svg>
