<svg width="276" height="63" viewBox="0 0 276 63" fill="none" xmlns="http://www.w3.org/2000/svg">
<path d="M12.3867 8.32471H7.875V3.19775H2.05078V8.32471H0V12.8364H2.05078V22.27C2.05078 25.3052 3.18555 27.1919 5.45508 27.9302C6.43945 28.2583 7.62891 28.4224 9.02344 28.4224H12.3867V23.5005H8.44922C8.09375 23.4458 7.90234 23.2544 7.875 22.9263V12.8364H12.3867V8.32471Z" fill="#E34614"/>
<path d="M23.666 24.1157H20.0977C19.7422 24.061 19.5508 23.8696 19.5234 23.5415V20.8755C19.5781 20.52 19.7695 20.3286 20.0977 20.3013H23.666V24.1157ZM19.7285 28.8325C22.1074 28.7778 23.4609 27.5747 23.7891 25.2231L24.1992 28.4224H29.5312V14.1899C29.5312 11.3188 28.5742 9.50049 26.6602 8.73486C25.7578 8.40674 24.5957 8.24268 23.1738 8.24268L15.2578 8.28369V13.2056L23.0918 13.1646C23.4473 13.2192 23.6387 13.4106 23.666 13.7388V16.1997H19.9336C17.0898 16.1997 15.2715 16.897 14.4785 18.2915C14.0137 19.1118 13.7812 20.2603 13.7812 21.7368V23.7056C13.7812 26.3306 14.7246 27.9302 16.6113 28.5044C17.3223 28.7231 18.1562 28.8325 19.1133 28.8325H19.7285Z" fill="#E34614"/>
<path d="M42.2871 20.3423C42.5879 20.397 42.793 20.5884 42.9023 20.9165L45.0352 28.4224H51.0234L49.0547 21.7778C48.4531 19.8091 47.7832 18.5649 47.0449 18.0454C46.7988 17.8813 46.5391 17.7446 46.2656 17.6353C46.9219 17.0884 47.4961 15.8716 47.9883 13.9849L49.5059 8.32471H43.6816L42.041 14.8462C41.9043 15.2017 41.6992 15.3931 41.4258 15.4204H38.9648V0.736816H33.2227V28.4224H38.9648V20.3423H42.2871Z" fill="#E34614"/>
<path d="M67.8398 28.6685V23.7466H59.1445C58.7891 23.6919 58.5977 23.5005 58.5703 23.1724V20.9575H68.4551V13.6567C68.4551 11.0591 67.7305 9.37744 66.2812 8.61182C65.3516 8.14697 64.0254 7.91455 62.3027 7.91455H58.8984C56.1094 7.91455 54.3047 8.59814 53.4844 9.96533C52.9922 10.8403 52.7461 12.0708 52.7461 13.6567V22.5161C52.7461 25.5513 53.8809 27.438 56.1504 28.1763C57.1348 28.5044 58.3242 28.6685 59.7188 28.6685H67.8398ZM58.5703 13.2056C58.625 12.8501 58.8164 12.6587 59.1445 12.6313H62.1387C62.4941 12.686 62.6855 12.8774 62.7129 13.2056V16.856H58.5703V13.2056Z" fill="#E34614"/>
<path d="M77.9297 28.8325C80.3359 28.7778 81.7031 27.5747 82.0312 25.2231L82.4414 28.4224H87.7324L87.6504 8.32471H81.8262L81.9082 24.1157H77.9297C77.5742 24.061 77.3828 23.8696 77.3555 23.5415V8.32471H71.5312V23.7056C71.5312 26.3306 72.4746 27.9302 74.3613 28.5044C75.0723 28.7231 75.9062 28.8325 76.8633 28.8325H77.9297Z" fill="#E34614"/>
<path d="M97.6992 36.2153V28.5044H101.883C104.727 28.5044 106.545 27.8071 107.338 26.4126C107.803 25.5923 108.035 24.4438 108.035 22.9673V13.0415C108.035 10.4165 107.092 8.81689 105.205 8.24268C104.494 8.02393 103.66 7.91455 102.703 7.91455H101.678C99.2988 7.91455 97.9453 9.11768 97.6172 11.5239C97.5898 11.606 97.5762 11.6743 97.5762 11.729L97.125 8.32471H91.834V36.2153H97.6992ZM97.6992 13.2056C97.7539 12.8501 97.9453 12.6587 98.2734 12.6313H101.719C102.074 12.686 102.266 12.8774 102.293 13.2056V23.1313C102.238 23.4868 102.047 23.6782 101.719 23.7056H97.6992V13.2056Z" fill="#E34614"/>
<path d="M120.299 28.4634C123.006 28.4634 124.674 27.5747 125.303 25.7974C125.521 25.1138 125.631 24.2935 125.631 23.3364V21.4907C125.631 18.9751 124.879 17.3481 123.375 16.6099C122.473 16.1724 121.174 15.9536 119.479 15.9536H117.346C116.99 15.8989 116.799 15.7075 116.771 15.3794V13.4106C116.826 13.0552 117.018 12.8638 117.346 12.8364L124.4 12.8774V7.95557L117.264 7.91455C114.201 7.88721 112.273 8.77588 111.48 10.5806C111.098 11.4556 110.906 12.5493 110.906 13.8618V14.9692C110.906 17.5122 111.672 19.1528 113.203 19.8911C114.133 20.3286 115.418 20.5474 117.059 20.5474H119.314C119.67 20.6021 119.861 20.7935 119.889 21.1216V23.1724C119.834 23.5278 119.643 23.7192 119.314 23.7466H111.316L111.357 28.4634H120.299Z" fill="#E34614"/>
<path d="M137.977 12.8364C138.332 12.8911 138.523 13.0825 138.551 13.4106V23.3364C138.496 23.6919 138.305 23.8833 137.977 23.9106H134.531C134.176 23.856 133.984 23.6646 133.957 23.3364V13.4106C134.012 13.0552 134.203 12.8638 134.531 12.8364H137.977ZM128.092 22.6802C128.092 25.7153 129.227 27.6021 131.496 28.3403C132.48 28.6685 133.67 28.8325 135.064 28.8325H137.443C140.971 28.8325 143.145 27.7661 143.965 25.6333C144.266 24.813 144.416 23.8286 144.416 22.6802V14.0669C144.416 11.0317 143.281 9.14502 141.012 8.40674C140.055 8.07861 138.865 7.91455 137.443 7.91455H135.064C131.537 7.91455 129.363 8.98096 128.543 11.1138C128.242 11.9341 128.092 12.9185 128.092 14.0669V22.6802Z" fill="#E34614"/>
<path d="M157.705 7.91455C155.299 7.96924 153.932 9.17236 153.604 11.5239L153.193 8.32471H147.902L147.984 28.4224H153.809L153.727 13.2056C153.781 12.8501 153.973 12.6587 154.301 12.6313H157.295C157.65 12.686 157.842 12.8774 157.869 13.2056V28.4224H163.693V13.2056C163.748 12.8501 163.939 12.6587 164.268 12.6313H167.18C167.535 12.686 167.727 12.8774 167.754 13.2056V28.4224H173.578V13.0415C173.578 10.4165 172.635 8.81689 170.748 8.24268C170.037 8.02393 169.203 7.91455 168.246 7.91455H167.672C165.32 7.96924 163.953 9.14502 163.57 11.4419C163.215 9.4458 161.957 8.29736 159.797 7.99658C159.332 7.94189 158.854 7.91455 158.361 7.91455H157.705Z" fill="#E34614"/>
<path d="M191.625 28.6685V23.7466H182.93C182.574 23.6919 182.383 23.5005 182.355 23.1724V20.9575H192.24V13.6567C192.24 11.0591 191.516 9.37744 190.066 8.61182C189.137 8.14697 187.811 7.91455 186.088 7.91455H182.684C179.895 7.91455 178.09 8.59814 177.27 9.96533C176.777 10.8403 176.531 12.0708 176.531 13.6567V22.5161C176.531 25.5513 177.666 27.438 179.936 28.1763C180.92 28.5044 182.109 28.6685 183.504 28.6685H191.625ZM182.355 13.2056C182.41 12.8501 182.602 12.6587 182.93 12.6313H185.924C186.279 12.686 186.471 12.8774 186.498 13.2056V16.856H182.355V13.2056Z" fill="#E34614"/>
<path d="M206.965 8.32471H202.453V3.19775H196.629V8.32471H194.578V12.8364H196.629V22.27C196.629 25.3052 197.764 27.1919 200.033 27.9302C201.018 28.2583 202.207 28.4224 203.602 28.4224H206.965V23.5005H203.027C202.672 23.4458 202.48 23.2544 202.453 22.9263V12.8364H206.965V8.32471Z" fill="#E34614"/>
<path d="M218.9 7.91455C216.74 7.94189 215.414 8.9126 214.922 10.8267V0.736816H209.098L209.18 28.4224H215.004L214.922 13.2056C214.977 12.8501 215.168 12.6587 215.496 12.6313H218.9C219.256 12.686 219.447 12.8774 219.475 13.2056V28.4224H225.299V13.0415C225.299 10.4165 224.355 8.81689 222.469 8.24268C221.758 8.02393 220.924 7.91455 219.967 7.91455H218.9Z" fill="#E34614"/>
<path d="M235.061 28.4224V8.32471H229.236V28.4224H235.061ZM235.061 5.78174V0.859863H229.236V5.78174H235.061Z" fill="#E34614"/>
<path d="M249.211 7.91455C246.805 7.96924 245.438 9.17236 245.109 11.5239L244.699 8.32471H239.408L239.49 28.4224H245.314L245.232 13.2056C245.287 12.8501 245.479 12.6587 245.807 12.6313H249.211C249.566 12.686 249.758 12.8774 249.785 13.2056V28.4224H255.609V13.0415C255.609 10.4165 254.666 8.81689 252.779 8.24268C252.068 8.02393 251.234 7.91455 250.277 7.91455H249.211Z" fill="#E34614"/>
<path d="M269.227 23.5415C269.172 23.897 268.98 24.0884 268.652 24.1157H265.207C264.852 24.061 264.66 23.8696 264.633 23.5415V13.6978C264.688 13.3423 264.879 13.1509 265.207 13.1235H269.227V23.5415ZM268.652 31.7856H259.834V36.6255H268.119C271.646 36.6255 273.82 35.5591 274.641 33.4263C274.941 32.606 275.092 31.6216 275.092 30.4731V8.32471L265.043 8.20166C262.172 8.17432 260.34 8.88525 259.547 10.3345C259.109 11.1548 258.891 12.2896 258.891 13.7388V23.7056C258.891 26.3306 259.834 27.9302 261.721 28.5044C262.432 28.7231 263.266 28.8325 264.223 28.8325H265.248C267.463 28.8052 268.789 27.7798 269.227 25.7563V31.2114C269.172 31.5669 268.98 31.7583 268.652 31.7856Z" fill="#E34614"/>
<path d="M2.14746 45.6752L6.86719 56.9691L11.6045 45.6752H13.0459V58.4721H11.9648V52.8998L12.0527 47.1869L7.28906 58.4721H6.4541L1.70801 47.2309L1.7959 52.8647V58.4721H0.714844V45.6752H2.14746Z" fill="black"/>
<path d="M22.1602 57.268C21.5273 58.1879 20.5166 58.6479 19.1279 58.6479C18.1143 58.6479 17.3438 58.3549 16.8164 57.769C16.2891 57.1772 16.0195 56.3041 16.0078 55.1498V48.9623H17.0537V55.018C17.0537 56.8285 17.7861 57.7338 19.251 57.7338C20.7744 57.7338 21.7383 57.1039 22.1426 55.8441V48.9623H23.1973V58.4721H22.1777L22.1602 57.268Z" fill="black"/>
<path d="M31.6348 56.0551C31.6348 55.5336 31.4238 55.1147 31.002 54.7982C30.5859 54.4818 29.9561 54.2357 29.1123 54.06C28.2686 53.8783 27.6123 53.6732 27.1436 53.4447C26.6807 53.2104 26.335 52.9262 26.1064 52.5922C25.8838 52.2582 25.7725 51.8539 25.7725 51.3793C25.7725 50.6293 26.0859 50.0111 26.7129 49.5248C27.3398 49.0326 28.1426 48.7865 29.1211 48.7865C30.1816 48.7865 31.0312 49.0502 31.6699 49.5775C32.3145 50.099 32.6367 50.7816 32.6367 51.6254H31.582C31.582 51.0688 31.3477 50.6059 30.8789 50.2367C30.416 49.8676 29.8301 49.683 29.1211 49.683C28.4297 49.683 27.873 49.8383 27.4512 50.1488C27.0352 50.4535 26.8271 50.852 26.8271 51.3441C26.8271 51.8188 27 52.1879 27.3457 52.4516C27.6973 52.7094 28.333 52.9467 29.2529 53.1635C30.1787 53.3803 30.8701 53.6117 31.3271 53.8578C31.79 54.1039 32.1328 54.3998 32.3555 54.7455C32.5781 55.0912 32.6895 55.5102 32.6895 56.0023C32.6895 56.8051 32.3643 57.4467 31.7139 57.9272C31.0693 58.4076 30.2256 58.6479 29.1826 58.6479C28.0752 58.6479 27.1758 58.3813 26.4844 57.8481C25.7988 57.309 25.4561 56.6293 25.4561 55.809H26.5107C26.5518 56.4242 26.8096 56.9047 27.2842 57.2504C27.7646 57.5902 28.3975 57.7602 29.1826 57.7602C29.915 57.7602 30.5068 57.599 30.958 57.2768C31.4092 56.9545 31.6348 56.5473 31.6348 56.0551Z" fill="black"/>
<path d="M36.6973 46.5277V48.9623H38.666V49.8236H36.6973V56.1606C36.6973 56.6879 36.791 57.0805 36.9785 57.3383C37.1719 57.5961 37.4912 57.725 37.9365 57.725C38.1123 57.725 38.3965 57.6957 38.7891 57.6371L38.833 58.4984C38.5576 58.5981 38.1826 58.6479 37.708 58.6479C36.9873 58.6479 36.4629 58.4398 36.1348 58.0238C35.8066 57.602 35.6426 56.9838 35.6426 56.1693V49.8236H33.8936V48.9623H35.6426V46.5277H36.6973Z" fill="black"/>
<path d="M44.1152 53.269H39.9053V52.3813H44.1152V53.269Z" fill="black"/>
<path d="M47.042 50.5707C47.3877 50.0023 47.8301 49.5629 48.3691 49.2523C48.9082 48.9418 49.4971 48.7865 50.1357 48.7865C51.1553 48.7865 51.9141 49.0736 52.4121 49.6479C52.9102 50.2221 53.1621 51.0834 53.168 52.2318V58.4721H52.1221V52.2231C52.1162 51.3734 51.9346 50.7406 51.5771 50.3246C51.2256 49.9086 50.6602 49.7006 49.8809 49.7006C49.2305 49.7006 48.6533 49.9057 48.1494 50.3158C47.6514 50.7201 47.2822 51.268 47.042 51.9594V58.4721H45.9961V44.9721H47.042V50.5707Z" fill="black"/>
<path d="M61.8779 58.4721C61.7725 58.1732 61.7051 57.7309 61.6758 57.1449C61.3066 57.6254 60.835 57.9975 60.2607 58.2611C59.6924 58.519 59.0889 58.6479 58.4502 58.6479C57.5361 58.6479 56.7949 58.393 56.2266 57.8832C55.6641 57.3734 55.3828 56.7289 55.3828 55.9496C55.3828 55.0238 55.7666 54.2914 56.5342 53.7523C57.3076 53.2133 58.3828 52.9438 59.7598 52.9438H61.667V51.8627C61.667 51.183 61.4561 50.6498 61.0342 50.2631C60.6182 49.8705 60.0088 49.6742 59.2061 49.6742C58.4736 49.6742 57.8672 49.8617 57.3867 50.2367C56.9062 50.6117 56.666 51.0629 56.666 51.5902L55.6113 51.5815C55.6113 50.8256 55.9629 50.1723 56.666 49.6215C57.3691 49.0648 58.2334 48.7865 59.2588 48.7865C60.3193 48.7865 61.1543 49.0531 61.7637 49.5863C62.3789 50.1137 62.6953 50.852 62.7129 51.8012V56.3012C62.7129 57.2211 62.8096 57.9096 63.0029 58.3666V58.4721H61.8779ZM58.5732 57.7162C59.2764 57.7162 59.9033 57.5463 60.4541 57.2065C61.0107 56.8666 61.415 56.4125 61.667 55.8441V53.7523H59.7861C58.7373 53.7641 57.917 53.9574 57.3252 54.3324C56.7334 54.7016 56.4375 55.2113 56.4375 55.8617C56.4375 56.3949 56.6338 56.8373 57.0264 57.1889C57.4248 57.5404 57.9404 57.7162 58.5732 57.7162Z" fill="black"/>
<path d="M68.3467 57.0219L71.2383 48.9623H72.3193L68.7686 58.4721H67.916L64.3477 48.9623H65.4287L68.3467 57.0219Z" fill="black"/>
<path d="M77.6104 58.6479C76.8018 58.6479 76.0693 58.4486 75.4131 58.0502C74.7627 57.6518 74.2559 57.0981 73.8926 56.3891C73.5293 55.6742 73.3477 54.8744 73.3477 53.9897V53.6117C73.3477 52.6977 73.5234 51.8744 73.875 51.142C74.2324 50.4096 74.7275 49.8354 75.3604 49.4193C75.9932 48.9975 76.6787 48.7865 77.417 48.7865C78.5713 48.7865 79.4854 49.182 80.1592 49.9731C80.8389 50.7582 81.1787 51.8334 81.1787 53.1986V53.7875H74.3936V53.9897C74.3936 55.0678 74.7012 55.9672 75.3164 56.6879C75.9375 57.4027 76.7168 57.7602 77.6543 57.7602C78.2168 57.7602 78.7119 57.6576 79.1396 57.4525C79.5732 57.2475 79.9658 56.9193 80.3174 56.4682L80.9766 56.9691C80.2031 58.0883 79.0811 58.6479 77.6104 58.6479ZM77.417 49.683C76.626 49.683 75.958 49.9731 75.4131 50.5531C74.874 51.1332 74.5459 51.9125 74.4287 52.891H80.1328V52.7768C80.1035 51.8627 79.8428 51.1186 79.3506 50.5443C78.8584 49.9701 78.2139 49.683 77.417 49.683Z" fill="black"/>
<path d="M88.7812 58.4721H87.7266V48.9623H88.7812V58.4721ZM87.542 46.2113C87.542 46.0121 87.6064 45.8451 87.7354 45.7104C87.8643 45.5697 88.04 45.4994 88.2627 45.4994C88.4854 45.4994 88.6611 45.5697 88.79 45.7104C88.9248 45.8451 88.9922 46.0121 88.9922 46.2113C88.9922 46.4106 88.9248 46.5775 88.79 46.7123C88.6611 46.8471 88.4854 46.9145 88.2627 46.9145C88.04 46.9145 87.8643 46.8471 87.7354 46.7123C87.6064 46.5775 87.542 46.4106 87.542 46.2113Z" fill="black"/>
<path d="M93.2812 46.5277V48.9623H95.25V49.8236H93.2812V56.1606C93.2812 56.6879 93.375 57.0805 93.5625 57.3383C93.7559 57.5961 94.0752 57.725 94.5205 57.725C94.6963 57.725 94.9805 57.6957 95.373 57.6371L95.417 58.4984C95.1416 58.5981 94.7666 58.6479 94.292 58.6479C93.5713 58.6479 93.0469 58.4398 92.7188 58.0238C92.3906 57.602 92.2266 56.9838 92.2266 56.1693V49.8236H90.4775V48.9623H92.2266V46.5277H93.2812Z" fill="black"/>
<path d="M101.112 58.6479C100.304 58.6479 99.5713 58.4486 98.915 58.0502C98.2646 57.6518 97.7578 57.0981 97.3945 56.3891C97.0312 55.6742 96.8496 54.8744 96.8496 53.9897V53.6117C96.8496 52.6977 97.0254 51.8744 97.377 51.142C97.7344 50.4096 98.2295 49.8354 98.8623 49.4193C99.4951 48.9975 100.181 48.7865 100.919 48.7865C102.073 48.7865 102.987 49.182 103.661 49.9731C104.341 50.7582 104.681 51.8334 104.681 53.1986V53.7875H97.8955V53.9897C97.8955 55.0678 98.2031 55.9672 98.8184 56.6879C99.4395 57.4027 100.219 57.7602 101.156 57.7602C101.719 57.7602 102.214 57.6576 102.642 57.4525C103.075 57.2475 103.468 56.9193 103.819 56.4682L104.479 56.9691C103.705 58.0883 102.583 58.6479 101.112 58.6479ZM100.919 49.683C100.128 49.683 99.46 49.9731 98.915 50.5531C98.376 51.1332 98.0479 51.9125 97.9307 52.891H103.635V52.7768C103.605 51.8627 103.345 51.1186 102.853 50.5443C102.36 49.9701 101.716 49.683 100.919 49.683Z" fill="black"/>
<path d="M107.687 48.9623L107.722 50.5092C108.073 49.935 108.513 49.5043 109.04 49.2172C109.567 48.9301 110.153 48.7865 110.798 48.7865C112.298 48.7865 113.25 49.4018 113.654 50.6322C113.994 50.0404 114.448 49.5863 115.017 49.2699C115.585 48.9477 116.212 48.7865 116.897 48.7865C118.937 48.7865 119.977 49.8998 120.018 52.1264V58.4721H118.963V52.2055C118.957 51.3559 118.772 50.726 118.409 50.3158C118.052 49.9057 117.466 49.7006 116.651 49.7006C115.896 49.7123 115.257 49.9584 114.735 50.4389C114.214 50.9135 113.924 51.4936 113.865 52.1791V58.4721H112.811V52.1264C112.805 51.3119 112.611 50.7055 112.23 50.307C111.855 49.9027 111.275 49.7006 110.49 49.7006C109.828 49.7006 109.26 49.891 108.785 50.2719C108.311 50.6469 107.959 51.2065 107.73 51.9506V58.4721H106.676V48.9623H107.687Z" fill="black"/>
<path d="M128.385 56.0551C128.385 55.5336 128.174 55.1147 127.752 54.7982C127.336 54.4818 126.706 54.2357 125.862 54.06C125.019 53.8783 124.362 53.6732 123.894 53.4447C123.431 53.2104 123.085 52.9262 122.856 52.5922C122.634 52.2582 122.522 51.8539 122.522 51.3793C122.522 50.6293 122.836 50.0111 123.463 49.5248C124.09 49.0326 124.893 48.7865 125.871 48.7865C126.932 48.7865 127.781 49.0502 128.42 49.5775C129.064 50.099 129.387 50.7816 129.387 51.6254H128.332C128.332 51.0688 128.098 50.6059 127.629 50.2367C127.166 49.8676 126.58 49.683 125.871 49.683C125.18 49.683 124.623 49.8383 124.201 50.1488C123.785 50.4535 123.577 50.852 123.577 51.3441C123.577 51.8188 123.75 52.1879 124.096 52.4516C124.447 52.7094 125.083 52.9467 126.003 53.1635C126.929 53.3803 127.62 53.6117 128.077 53.8578C128.54 54.1039 128.883 54.3998 129.105 54.7455C129.328 55.0912 129.439 55.5102 129.439 56.0023C129.439 56.8051 129.114 57.4467 128.464 57.9272C127.819 58.4076 126.976 58.6479 125.933 58.6479C124.825 58.6479 123.926 58.3813 123.234 57.8481C122.549 57.309 122.206 56.6293 122.206 55.809H123.261C123.302 56.4242 123.56 56.9047 124.034 57.2504C124.515 57.5902 125.147 57.7602 125.933 57.7602C126.665 57.7602 127.257 57.599 127.708 57.2768C128.159 56.9545 128.385 56.5473 128.385 56.0551Z" fill="black"/>
<path d="M136.945 58.4721V49.8236H135.372V48.9623H136.945V47.8109C136.945 46.8383 137.191 46.0912 137.684 45.5697C138.182 45.0482 138.873 44.7875 139.758 44.7875C140.156 44.7875 140.528 44.8373 140.874 44.9369L140.795 45.8158C140.502 45.7455 140.183 45.7104 139.837 45.7104C139.257 45.7104 138.806 45.892 138.483 46.2553C138.161 46.6127 138 47.1225 138 47.7846V48.9623H140.268V49.8236H138V58.4721H136.945Z" fill="black"/>
<path d="M141.568 53.5766C141.568 52.6625 141.744 51.8393 142.096 51.1068C142.453 50.3744 142.954 49.8061 143.599 49.4018C144.249 48.9916 144.984 48.7865 145.805 48.7865C147.07 48.7865 148.096 49.2318 148.881 50.1225C149.666 51.0072 150.059 52.182 150.059 53.6469V53.8666C150.059 54.7865 149.88 55.6156 149.522 56.3539C149.171 57.0863 148.673 57.6518 148.028 58.0502C147.384 58.4486 146.648 58.6479 145.822 58.6479C144.562 58.6479 143.537 58.2055 142.746 57.3207C141.961 56.4301 141.568 55.2523 141.568 53.7875V53.5766ZM142.623 53.8666C142.623 55.0033 142.916 55.9379 143.502 56.6703C144.094 57.3969 144.867 57.7602 145.822 57.7602C146.771 57.7602 147.539 57.3969 148.125 56.6703C148.717 55.9379 149.013 54.974 149.013 53.7787V53.5766C149.013 52.85 148.878 52.185 148.608 51.5815C148.339 50.9779 147.961 50.5121 147.475 50.184C146.988 49.85 146.432 49.683 145.805 49.683C144.867 49.683 144.103 50.0522 143.511 50.7904C142.919 51.5229 142.623 52.4838 142.623 53.6732V53.8666Z" fill="black"/>
<path d="M156.633 49.8588C156.41 49.8178 156.173 49.7973 155.921 49.7973C155.265 49.7973 154.708 49.9818 154.251 50.351C153.8 50.7143 153.478 51.2445 153.284 51.9418V58.4721H152.238V48.9623H153.267L153.284 50.474C153.841 49.349 154.734 48.7865 155.965 48.7865C156.258 48.7865 156.489 48.8246 156.659 48.9008L156.633 49.8588Z" fill="black"/>
<path d="M168.683 58.4721C168.577 58.1732 168.51 57.7309 168.48 57.1449C168.111 57.6254 167.64 57.9975 167.065 58.2611C166.497 58.519 165.894 58.6479 165.255 58.6479C164.341 58.6479 163.6 58.393 163.031 57.8832C162.469 57.3734 162.188 56.7289 162.188 55.9496C162.188 55.0238 162.571 54.2914 163.339 53.7523C164.112 53.2133 165.188 52.9438 166.564 52.9438H168.472V51.8627C168.472 51.183 168.261 50.6498 167.839 50.2631C167.423 49.8705 166.813 49.6742 166.011 49.6742C165.278 49.6742 164.672 49.8617 164.191 50.2367C163.711 50.6117 163.471 51.0629 163.471 51.5902L162.416 51.5815C162.416 50.8256 162.768 50.1723 163.471 49.6215C164.174 49.0648 165.038 48.7865 166.063 48.7865C167.124 48.7865 167.959 49.0531 168.568 49.5863C169.184 50.1137 169.5 50.852 169.518 51.8012V56.3012C169.518 57.2211 169.614 57.9096 169.808 58.3666V58.4721H168.683ZM165.378 57.7162C166.081 57.7162 166.708 57.5463 167.259 57.2065C167.815 56.8666 168.22 56.4125 168.472 55.8441V53.7523H166.591C165.542 53.7641 164.722 53.9574 164.13 54.3324C163.538 54.7016 163.242 55.2113 163.242 55.8617C163.242 56.3949 163.438 56.8373 163.831 57.1889C164.229 57.5404 164.745 57.7162 165.378 57.7162Z" fill="black"/>
<path d="M173.332 48.9623L173.367 50.5883C173.725 50.0023 174.17 49.557 174.703 49.2523C175.236 48.9418 175.825 48.7865 176.47 48.7865C177.489 48.7865 178.248 49.0736 178.746 49.6479C179.244 50.2221 179.496 51.0834 179.502 52.2318V58.4721H178.456V52.2231C178.45 51.3734 178.269 50.7406 177.911 50.3246C177.56 49.9086 176.994 49.7006 176.215 49.7006C175.564 49.7006 174.987 49.9057 174.483 50.3158C173.985 50.7201 173.616 51.268 173.376 51.9594V58.4721H172.33V48.9623H173.332Z" fill="black"/>
<path d="M185.241 56.9604L188.019 48.9623H189.152L185.092 60.0893L184.881 60.5815C184.359 61.7357 183.554 62.3129 182.464 62.3129C182.212 62.3129 181.942 62.2719 181.655 62.1898L181.646 61.3197L182.191 61.3725C182.707 61.3725 183.123 61.2436 183.439 60.9857C183.762 60.7338 184.034 60.2973 184.257 59.6762L184.723 58.393L181.137 48.9623H182.288L185.241 56.9604Z" fill="black"/>
<path d="M196.342 58.4721H195.287V48.9623H196.342V58.4721ZM195.103 46.2113C195.103 46.0121 195.167 45.8451 195.296 45.7104C195.425 45.5697 195.601 45.4994 195.823 45.4994C196.046 45.4994 196.222 45.5697 196.351 45.7104C196.485 45.8451 196.553 46.0121 196.553 46.2113C196.553 46.4106 196.485 46.5775 196.351 46.7123C196.222 46.8471 196.046 46.9145 195.823 46.9145C195.601 46.9145 195.425 46.8471 195.296 46.7123C195.167 46.5775 195.103 46.4106 195.103 46.2113Z" fill="black"/>
<path d="M200.209 48.9623L200.244 50.5883C200.602 50.0023 201.047 49.557 201.58 49.2523C202.113 48.9418 202.702 48.7865 203.347 48.7865C204.366 48.7865 205.125 49.0736 205.623 49.6479C206.121 50.2221 206.373 51.0834 206.379 52.2318V58.4721H205.333V52.2231C205.327 51.3734 205.146 50.7406 204.788 50.3246C204.437 49.9086 203.871 49.7006 203.092 49.7006C202.441 49.7006 201.864 49.9057 201.36 50.3158C200.862 50.7201 200.493 51.268 200.253 51.9594V58.4721H199.207V48.9623H200.209Z" fill="black"/>
<path d="M210.738 46.5277V48.9623H212.707V49.8236H210.738V56.1606C210.738 56.6879 210.832 57.0805 211.02 57.3383C211.213 57.5961 211.532 57.725 211.978 57.725C212.153 57.725 212.438 57.6957 212.83 57.6371L212.874 58.4984C212.599 58.5981 212.224 58.6479 211.749 58.6479C211.028 58.6479 210.504 58.4398 210.176 58.0238C209.848 57.602 209.684 56.9838 209.684 56.1693V49.8236H207.935V48.9623H209.684V46.5277H210.738Z" fill="black"/>
<path d="M218.569 58.6479C217.761 58.6479 217.028 58.4486 216.372 58.0502C215.722 57.6518 215.215 57.0981 214.852 56.3891C214.488 55.6742 214.307 54.8744 214.307 53.9897V53.6117C214.307 52.6977 214.482 51.8744 214.834 51.142C215.191 50.4096 215.687 49.8354 216.319 49.4193C216.952 48.9975 217.638 48.7865 218.376 48.7865C219.53 48.7865 220.444 49.182 221.118 49.9731C221.798 50.7582 222.138 51.8334 222.138 53.1986V53.7875H215.353V53.9897C215.353 55.0678 215.66 55.9672 216.275 56.6879C216.896 57.4027 217.676 57.7602 218.613 57.7602C219.176 57.7602 219.671 57.6576 220.099 57.4525C220.532 57.2475 220.925 56.9193 221.276 56.4682L221.936 56.9691C221.162 58.0883 220.04 58.6479 218.569 58.6479ZM218.376 49.683C217.585 49.683 216.917 49.9731 216.372 50.5531C215.833 51.1332 215.505 51.9125 215.388 52.891H221.092V52.7768C221.062 51.8627 220.802 51.1186 220.31 50.5443C219.817 49.9701 219.173 49.683 218.376 49.683Z" fill="black"/>
<path d="M228.58 49.8588C228.357 49.8178 228.12 49.7973 227.868 49.7973C227.212 49.7973 226.655 49.9818 226.198 50.351C225.747 50.7143 225.425 51.2445 225.231 51.9418V58.4721H224.186V48.9623H225.214L225.231 50.474C225.788 49.349 226.682 48.7865 227.912 48.7865C228.205 48.7865 228.437 48.8246 228.606 48.9008L228.58 49.8588Z" fill="black"/>
<path d="M233.757 58.6479C232.948 58.6479 232.216 58.4486 231.56 58.0502C230.909 57.6518 230.402 57.0981 230.039 56.3891C229.676 55.6742 229.494 54.8744 229.494 53.9897V53.6117C229.494 52.6977 229.67 51.8744 230.021 51.142C230.379 50.4096 230.874 49.8354 231.507 49.4193C232.14 48.9975 232.825 48.7865 233.563 48.7865C234.718 48.7865 235.632 49.182 236.306 49.9731C236.985 50.7582 237.325 51.8334 237.325 53.1986V53.7875H230.54V53.9897C230.54 55.0678 230.848 55.9672 231.463 56.6879C232.084 57.4027 232.863 57.7602 233.801 57.7602C234.363 57.7602 234.858 57.6576 235.286 57.4525C235.72 57.2475 236.112 56.9193 236.464 56.4682L237.123 56.9691C236.35 58.0883 235.228 58.6479 233.757 58.6479ZM233.563 49.683C232.772 49.683 232.104 49.9731 231.56 50.5531C231.021 51.1332 230.692 51.9125 230.575 52.891H236.279V52.7768C236.25 51.8627 235.989 51.1186 235.497 50.5443C235.005 49.9701 234.36 49.683 233.563 49.683Z" fill="black"/>
<path d="M245.068 56.0551C245.068 55.5336 244.857 55.1147 244.436 54.7982C244.02 54.4818 243.39 54.2357 242.546 54.06C241.702 53.8783 241.046 53.6732 240.577 53.4447C240.114 53.2104 239.769 52.9262 239.54 52.5922C239.317 52.2582 239.206 51.8539 239.206 51.3793C239.206 50.6293 239.52 50.0111 240.146 49.5248C240.773 49.0326 241.576 48.7865 242.555 48.7865C243.615 48.7865 244.465 49.0502 245.104 49.5775C245.748 50.099 246.07 50.7816 246.07 51.6254H245.016C245.016 51.0688 244.781 50.6059 244.312 50.2367C243.85 49.8676 243.264 49.683 242.555 49.683C241.863 49.683 241.307 49.8383 240.885 50.1488C240.469 50.4535 240.261 50.852 240.261 51.3441C240.261 51.8188 240.434 52.1879 240.779 52.4516C241.131 52.7094 241.767 52.9467 242.687 53.1635C243.612 53.3803 244.304 53.6117 244.761 53.8578C245.224 54.1039 245.566 54.3998 245.789 54.7455C246.012 55.0912 246.123 55.5102 246.123 56.0023C246.123 56.8051 245.798 57.4467 245.147 57.9272C244.503 58.4076 243.659 58.6479 242.616 58.6479C241.509 58.6479 240.609 58.3813 239.918 57.8481C239.232 57.309 238.89 56.6293 238.89 55.809H239.944C239.985 56.4242 240.243 56.9047 240.718 57.2504C241.198 57.5902 241.831 57.7602 242.616 57.7602C243.349 57.7602 243.94 57.599 244.392 57.2768C244.843 56.9545 245.068 56.5473 245.068 56.0551Z" fill="black"/>
<path d="M250.131 46.5277V48.9623H252.1V49.8236H250.131V56.1606C250.131 56.6879 250.225 57.0805 250.412 57.3383C250.605 57.5961 250.925 57.725 251.37 57.725C251.546 57.725 251.83 57.6957 252.223 57.6371L252.267 58.4984C251.991 58.5981 251.616 58.6479 251.142 58.6479C250.421 58.6479 249.896 58.4398 249.568 58.0238C249.24 57.602 249.076 56.9838 249.076 56.1693V49.8236H247.327V48.9623H249.076V46.5277H250.131Z" fill="black"/>
</svg>
